# Blender v2.79 (sub 0) OBJ File: 'Mushrooms.blend'
# www.blender.org
mtllib MushroomSml.mtl
o Cube.001
v 3.292142 -0.067369 -0.265273
v 3.471748 1.637906 -0.529348
v 3.292142 -0.067369 0.269314
v 3.471748 1.637906 0.563330
v 2.757556 -0.067369 -0.265273
v 2.342969 1.433093 -0.529348
v 2.757556 -0.067369 0.269314
v 2.342969 1.433093 0.563330
v 3.899484 1.299639 -0.878348
v 3.899484 1.299639 0.923211
v 2.120863 0.961269 0.923211
v 2.120863 0.961269 -0.878348
v 3.024849 -0.067369 0.413245
v 2.916268 1.537116 0.681392
v 3.024849 -0.067369 -0.356625
v 2.916268 1.537116 -0.681392
v 3.024635 1.133205 -1.259458
v 3.024635 1.133205 1.259458
v 3.407271 -0.067369 0.002020
v 3.586713 1.658766 0.000000
v 2.644618 -0.067369 0.002020
v 2.245822 1.415466 0.000000
v 1.787368 0.897824 0.000000
v 4.261903 1.368587 0.000000
v 2.905646 1.751463 0.000000
v 3.024765 -0.067369 0.000000
v 3.328009 0.993577 0.291090
v 2.786440 0.880452 0.291090
v 2.786440 0.880452 -0.276473
v 3.328009 0.993577 -0.276473
v 3.062947 0.938210 0.454044
v 3.062947 0.938210 -0.388008
v 3.448176 1.018678 0.005027
v 2.648549 0.851649 0.005027
v 3.481870 0.508484 -0.005060
v 2.938293 0.508484 -0.005060
v 2.938293 0.508484 -0.555524
v 3.212897 0.508484 0.148031
v 3.212897 0.508484 -0.656594
v 3.600673 0.508484 -0.281390
v 2.811908 0.508484 -0.281390
v 3.481870 0.508484 -0.555524
vn 0.4373 0.8783 0.1935
vn -0.3247 0.7106 0.6241
vn -0.7724 0.6023 -0.2016
vn 0.0733 0.7988 -0.5971
vn 0.0000 -1.0000 0.0000
vn 0.0172 0.9812 -0.1921
vn 0.2764 -0.9359 -0.2183
vn -0.0441 -0.9943 -0.0970
vn 0.0911 -0.9688 0.2305
vn 0.3943 -0.9149 0.0862
vn 0.2791 -0.9342 0.2221
vn 0.0941 -0.9695 -0.2265
vn -0.3502 0.9191 -0.1805
vn -0.3543 0.7011 -0.6188
vn 0.0434 0.7954 0.6046
vn -0.3457 0.9218 0.1756
vn 0.3939 -0.9148 -0.0897
vn -0.0445 -0.9947 0.0932
vn 0.0114 0.9824 0.1866
vn -0.7747 0.6026 0.1916
vn 0.4353 0.8770 -0.2036
vn -0.7066 -0.6073 0.3632
vn 0.8088 0.4583 -0.3685
vn -0.3640 0.4280 -0.8272
vn 0.5034 -0.3522 0.7890
vn 0.9182 0.0529 0.3925
vn -0.3291 -0.6432 0.6914
vn -0.9005 -0.0560 -0.4312
vn 0.2564 0.5577 -0.7894
vn 0.2905 -0.5102 -0.8095
vn -0.9121 0.0748 -0.4032
vn -0.4185 0.4917 0.7636
vn 0.9126 -0.1134 0.3927
vn 0.4699 0.2434 0.8485
vn -0.3132 -0.3518 -0.8821
vn 0.8201 -0.4493 -0.3543
vn -0.8278 0.4266 0.3644
usemtl None
s off
f 24//1 20//1 4//1 10//1
f 18//2 14//2 8//2 11//2
f 23//3 22//3 6//3 12//3
f 17//4 16//4 2//4 9//4
f 26//5 21//5 5//5 15//5
f 25//6 20//6 2//6 16//6
f 32//7 17//7 9//7 30//7
f 34//8 23//8 12//8 29//8
f 31//9 18//9 11//9 28//9
f 33//10 24//10 10//10 27//10
f 27//11 10//11 18//11 31//11
f 29//12 12//12 17//12 32//12
f 22//13 25//13 16//13 6//13
f 19//5 26//5 15//5 1//5
f 12//14 6//14 16//14 17//14
f 10//15 4//15 14//15 18//15
f 3//5 13//5 26//5 19//5
f 8//16 14//16 25//16 22//16
f 30//17 9//17 24//17 33//17
f 28//18 11//18 23//18 34//18
f 14//19 4//19 20//19 25//19
f 13//5 7//5 21//5 26//5
f 11//20 8//20 22//20 23//20
f 9//21 2//21 20//21 24//21
f 36//22 28//22 34//22 41//22
f 42//23 30//23 33//23 40//23
f 37//24 29//24 32//24 39//24
f 35//25 27//25 31//25 38//25
f 40//26 33//26 27//26 35//26
f 38//27 31//27 28//27 36//27
f 41//28 34//28 29//28 37//28
f 39//29 32//29 30//29 42//29
f 15//30 39//30 42//30 1//30
f 21//31 41//31 37//31 5//31
f 13//32 38//32 36//32 7//32
f 19//33 40//33 35//33 3//33
f 3//34 35//34 38//34 13//34
f 5//35 37//35 39//35 15//35
f 1//36 42//36 40//36 19//36
f 7//37 36//37 41//37 21//37
